<svg xmlns="http://www.w3.org/2000/svg" width="50" height="50" viewBox="0 0 670.59 670.59"><defs><style>.cls-1{fill:#fff;}.cls-2{fill:#34a851;fill-rule:evenodd;}.cls-3{fill:#4285f5;}.cls-4{fill:#f9bb0e;}.cls-5{fill:#e74335;}.cls-6{fill:#1a73e6;}</style></defs><g id="Layer_2" data-name="Layer 2"><g id="Layer_1-2" data-name="Layer 1"><circle class="cls-1" cx="335.29" cy="335.29" r="335.29"/><path class="cls-2" d="M501.63,269v.89c0,.37,0,.74,0,1.11s0,.88,0,1.32c0,69.36-54.05,130.76-90.21,171.85-10.49,11.93-19.48,22.14-25.21,30.34-20.36,29.17-31.11,60.77-33.94,72.92a17,17,0,0,1-33.95,0c-2.83-12.15-13.58-43.75-33.94-72.92-5.73-8.2-14.72-18.41-25.21-30.34C223,403.08,169,341.68,169,272.32c0-.44,0-.88,0-1.32,0-.66,0-1.33,0-2,0-89.7,74.47-162.41,166.33-162.41S501.63,179.3,501.63,269ZM335.29,328.67c35.62,0,64.5-28.2,64.5-63s-28.88-63-64.5-63-64.49,28.2-64.49,63S299.67,328.67,335.29,328.67Z"/><path class="cls-3" d="M483,194.3a165.91,165.91,0,0,0-98.87-80.59L288.64,222.22a65,65,0,0,1,46.66-19.5c35.62,0,64.49,28.19,64.49,63a61.77,61.77,0,0,1-12.91,37.82Z"/><path class="cls-4" d="M261.09,446.37l-1.93-2.19c-23.84-27.08-55.44-63-74.22-104.19l99.29-112.77a61.71,61.71,0,0,0-13.44,38.48c0,34.78,28.88,63,64.5,63a65.08,65.08,0,0,0,46.06-18.89Z"/><path class="cls-5" d="M208.32,164.09A159.52,159.52,0,0,0,169,269c0,.67,0,1.34,0,2,0,.44,0,.88,0,1.32,0,23.64,6.28,46.36,16,67.66L284.07,227.4Z"/><path class="cls-6" d="M384.15,113.71a170,170,0,0,0-48.86-7.12,167.58,167.58,0,0,0-127,57.5l75.75,63.31.17-.19a61.22,61.22,0,0,1,4.4-5Z"/></g></g></svg>