<svg xmlns="http://www.w3.org/2000/svg" viewBox="0 0 375 375"><defs><style>.cls-1{font-size:72px;}.cls-1,.cls-3{font-family:ComicSansMS, Comic Sans MS;}.cls-2,.cls-3{fill:#fff;}.cls-3{font-size:50.66px;}.cls-4{fill:#000;}.cls-5{fill:#212121;}.cls-6{fill:none;stroke:#1a1a1a;stroke-miterlimit:10;stroke-width:3px;}</style></defs><g id="Layer_2" data-name="Layer 2"><g id="Layer_1-2" data-name="Layer 1"><rect x="105.52" y="138.02" width="40" height="117" style="fill: rgb(241, 13, 13);"></rect><text class="cls-1" transform="translate(50.25 180.98)">m<tspan class="cls-2" x="55.93" y="0">o</tspan><tspan x="93.8" y="0">nster</tspan></text><text class="cls-3" transform="translate(106 231.7) scale(1.41 1)">p<tspan class="cls-4" x="27.09" y="0">rint</tspan></text><g id="Layer_2-2" data-name="Layer 2"><g id="_488" data-name=" 488"><path d="M76.32,222.42h-16a.49.49,0,0,1-.49-.49h0V207.81a.49.49,0,0,1,.49-.49h16a.49.49,0,0,1,.49.49v14.12a.49.49,0,0,1-.49.49Zm-15.48-1h15V208.3h-15Z" style="fill: rgb(241, 13, 13);"></path><path d="M78.25,225.36H58.42a.49.49,0,0,1-.49-.49h0v-2.94a.49.49,0,0,1,.49-.5H78.25a.49.49,0,0,1,.49.5h0v2.94a.49.49,0,0,1-.49.49Zm-19.34-1H77.76v-2H58.91Z" style="fill: rgb(241, 13, 13);"></path><path d="M68.42,239.91a.48.48,0,0,1-.4-.2l-8.21-11.62a.47.47,0,0,1-.09-.28v-2.94a.49.49,0,0,1,.49-.5H76.46a.49.49,0,0,1,.49.5v2.94a.47.47,0,0,1-.09.28l-8,11.61a.49.49,0,0,1-.4.21ZM60.7,227.65l7.72,10.92L76,227.66v-2.3H60.7Z" style="fill: rgb(241, 13, 13);"></path><path d="M60.35,210.11H58.76a.49.49,0,0,1-.49-.49h0v-3.07a.49.49,0,0,1,.49-.49h16a.49.49,0,0,1,.49.49v1.26a.49.49,0,0,1-.49.49H60.84v1.32a.49.49,0,0,1-.49.49Zm-1.1-1h.61v-1.31a.49.49,0,0,1,.49-.49h13.9V207h-15Z" style="fill: rgb(241, 13, 13);"></path><path d="M82,257.33H54.64a.51.51,0,0,1-.5-.49v-7.78a.49.49,0,0,1,.5-.49H82a.49.49,0,0,1,.49.49h0v7.78A.49.49,0,0,1,82,257.33Zm-26.9-1H81.54v-6.8H55.13Z" style="fill: rgb(241, 13, 13);"></path><path d="M68.46,248.14a.49.49,0,0,1-.49-.49h0v-.82a.49.49,0,0,1,1,0v.82a.49.49,0,0,1-.49.49Zm0-3.77a.49.49,0,0,1-.49-.49h0v-.82a.49.49,0,0,1,.48-.5.48.48,0,0,1,.5.48v.84a.49.49,0,0,1-.49.49Zm0-3.76a.49.49,0,0,1-.49-.49v-.82a.49.49,0,0,1,1,0v.82A.49.49,0,0,1,68.46,240.61Z" style="fill: rgb(241, 13, 13);"></path><path d="M71,257.33H65.65a.49.49,0,0,1-.5-.49.54.54,0,0,1,0-.21l2.69-5.69a.5.5,0,0,1,.45-.28h0a.49.49,0,0,1,.44.28l2.67,5.64a.5.5,0,0,1-.17.68A.43.43,0,0,1,71,257.33Zm-4.61-1h3.83l-1.91-4.05Z" style="fill: rgb(241, 13, 13);"></path><path d="M68.34,249.55a.49.49,0,0,1-.5-.49.55.55,0,0,1,.12-.32l5.67-6.65a.5.5,0,0,1,.7,0,.5.5,0,0,1,0,.68l-4.6,5.4L73.7,247a.49.49,0,1,1,.28.94l-5.5,1.61A.36.36,0,0,1,68.34,249.55Z" style="fill: rgb(241, 13, 13);"></path><path d="M68.34,249.55a.32.32,0,0,1-.14,0l-5.51-1.61A.49.49,0,1,1,63,247l3.92,1.15-4.6-5.4a.49.49,0,0,1,.05-.69.5.5,0,0,1,.7.05h0l5.67,6.66a.49.49,0,0,1,0,.69.55.55,0,0,1-.32.12Z" style="fill: rgb(241, 13, 13);"></path><path d="M72.67,222.42H64a.49.49,0,0,1-.49-.49h0V216.1a.49.49,0,0,1,.49-.49h8.68a.49.49,0,0,1,.5.49h0v5.83a.49.49,0,0,1-.5.49Zm-8.18-1h7.69V216.6H64.49Z" style="fill: rgb(241, 13, 13);"></path><path d="M75.07,230.25H67.79a.48.48,0,0,1-.5-.47.49.49,0,0,1,.47-.51h7.31a.49.49,0,0,1,.5.48.48.48,0,0,1-.48.5Z" style="fill: rgb(241, 13, 13);"></path><path d="M74,231.81H68.21a.51.51,0,0,1-.48-.51.48.48,0,0,1,.48-.47H74a.49.49,0,0,1,.51.47.51.51,0,0,1-.48.51Z" style="fill: rgb(241, 13, 13);"></path><path d="M73.19,233H68.55a.5.5,0,0,1,0-1h4.67a.51.51,0,0,1,.48.51A.5.5,0,0,1,73.19,233Z" style="fill: rgb(241, 13, 13);"></path><path d="M72.44,234.08h-3.3a.5.5,0,0,1,0-1h3.33a.5.5,0,0,1,0,1Z" style="fill: rgb(241, 13, 13);"></path><path d="M71.62,235.3H69.51a.5.5,0,0,1,0-1h2.13a.51.51,0,0,1,.48.51A.5.5,0,0,1,71.62,235.3Z" style="fill: rgb(241, 13, 13);"></path></g></g><path class="cls-5" d="M284.54,223.07h34.24a3.76,3.76,0,0,1,3.74,3.75v14.42a3.76,3.76,0,0,1-3.74,3.75h-5.94v-4.08H290.47V245h-5.93a3.76,3.76,0,0,1-3.75-3.75V226.82a3.76,3.76,0,0,1,3.75-3.75Zm34.24.94H284.54a2.77,2.77,0,0,0-2,.82,2.8,2.8,0,0,0-.83,2v14.42a2.83,2.83,0,0,0,2.81,2.81h5V240h24.25v4.08h5a2.82,2.82,0,0,0,2.8-2.81V226.82a2.8,2.8,0,0,0-2.8-2.81Z" style="fill: rgb(244, 0, 0);"></path><path class="cls-5" d="M288.94,223.54v-6.3h2.81v.94h-1.87v5.36Zm22.62-6.3h2.82v6.3h-.94v-5.36h-1.88Z" style="fill: rgb(244, 0, 0);"></path><path class="cls-5" d="M291.75,209.08H312V224H291.28V209.08Zm19.34.94H292.22v13h18.87Z" style="fill: rgb(244, 0, 0);"></path><path class="cls-5" d="M294.66,244.63a.47.47,0,1,0,0,.94h14a.47.47,0,0,0,0-.94Z" style="fill: rgb(244, 0, 0);"></path><path class="cls-5" d="M294.66,247.54a.47.47,0,1,0,0,.94h14a.47.47,0,0,0,0-.94Z" style="fill: rgb(244, 0, 0);"></path><path class="cls-5" d="M294.66,250.46a.47.47,0,1,0,0,.94h14a.47.47,0,0,0,0-.94Z" style="fill: rgb(244, 0, 0);"></path><path class="cls-5" d="M291.75,241.71H312v12.6H291.28v-12.6Zm19.34.95H292.22v10.71h18.87Z" style="fill: rgb(244, 0, 0);"></path><path class="cls-5" d="M281.26,229.48a.47.47,0,0,0,0,.94h40.79a.47.47,0,1,0,0-.94Z" style="fill: rgb(244, 0, 0);"></path><path class="cls-5" d="M317.13,225a1.78,1.78,0,1,1-1.26.52,1.78,1.78,0,0,1,1.26-.52Zm.76,1a1.09,1.09,0,0,0-.76-.31,1.08,1.08,0,0,0-1.08,1.07,1.09,1.09,0,0,0,1.08,1.08,1.06,1.06,0,0,0,.76-.32,1.07,1.07,0,0,0,.31-.76A1.11,1.11,0,0,0,317.89,226Z" style="fill: rgb(244, 0, 0);"></path><path class="cls-5" d="M312.47,225a1.78,1.78,0,1,1,0,3.56,1.78,1.78,0,1,1,0-3.56Zm.76,1a1.11,1.11,0,0,0-.76-.31,1.08,1.08,0,0,0-1.08,1.07,1.09,1.09,0,0,0,1.08,1.08,1.08,1.08,0,0,0,1.07-1.08A1.11,1.11,0,0,0,313.23,226Z" style="fill: rgb(244, 0, 0);"></path><path class="cls-5" d="M307.8,225a1.78,1.78,0,1,1,0,3.56,1.78,1.78,0,1,1,0-3.56Zm.76,1a1.07,1.07,0,0,0-.76-.31,1.06,1.06,0,0,0-1.07,1.07,1.08,1.08,0,0,0,1.07,1.08,1.09,1.09,0,0,0,1.08-1.08A1.07,1.07,0,0,0,308.56,226Z" style="fill: rgb(244, 0, 0);"></path><circle class="cls-6" cx="187.5" cy="187.5" r="186" style="stroke: rgb(244, 78, 63);"></circle></g></g></svg>