<svg xmlns="http://www.w3.org/2000/svg" viewBox="0 0 50.31 50.31"><defs><style>.cls-1{fill:#ea544e;}</style></defs><g id="Layer_2" data-name="Layer 2"><g id="Layer_1-2" data-name="Layer 1"><path class="cls-1" d="M25.16,0A25.16,25.16,0,1,0,50.31,25.16,25.15,25.15,0,0,0,25.16,0Zm1,36.23a2.28,2.28,0,0,1-4.15-.67c-.39-1.72-.75-3.37-1.06-5s-.59-3.18-.82-4.83c-.17.37-.35.75-.55,1.15s-.4.75-.6,1.08a13.34,13.34,0,0,1-.9,1.37,4.89,4.89,0,0,1-1.28,1.2,3.36,3.36,0,0,1-1.87.5,3.42,3.42,0,0,1-2-.57,4.87,4.87,0,0,1-1.32-1.36,16,16,0,0,1-.85-1.42c-.21-.39-.44-.83-.68-1.31L9.39,25,8.32,35.45A2.25,2.25,0,0,1,7.47,37a2.13,2.13,0,0,1-1.66.51,2.29,2.29,0,0,1-1.53-.85A2.15,2.15,0,0,1,3.77,35L5.82,15.54A2.19,2.19,0,0,1,6.74,14a2.15,2.15,0,0,1,1.77-.43,1.9,1.9,0,0,1,1.16.64,3,3,0,0,1,.62,1c.34,1.08.76,2.24,1.27,3.48s1,2.46,1.57,3.64,1,2.2,1.45,3.09c.15.3.28.45.4.45s.25-.14.41-.42c.34-.67.71-1.46,1.11-2.38s.8-1.87,1.19-2.85.73-1.93,1-2.82a20.87,20.87,0,0,0,.64-2.26,2.23,2.23,0,0,1,1.06-1.49,2.19,2.19,0,0,1,1.8-.25,2,2,0,0,1,1.2.9,2.4,2.4,0,0,1,.44,1.21c.07,1.89.17,3.65.31,5.25s.31,3.16.52,4.64.47,3,.76,4.45.64,3.06,1,4.7A2.14,2.14,0,0,1,26.2,36.23ZM43.08,29a11.35,11.35,0,0,1-3.39,1.74,11.57,11.57,0,0,1-3.62.59h-.89l-1-.06-.3,4.08a2.19,2.19,0,0,1-.77,1.55,2.26,2.26,0,0,1-1.66.56,2.31,2.31,0,0,1-2.11-2.44l.42-5.77a2.15,2.15,0,0,1,0-1.58l.09-.21L30.36,20a2.13,2.13,0,0,1-1.76-.53,2.2,2.2,0,0,1-.75-1.56,2.13,2.13,0,0,1,.54-1.64,8.47,8.47,0,0,1,2.5-2A12.34,12.34,0,0,1,34,13.18a14.52,14.52,0,0,1,3.21-.37,9,9,0,0,1,3.7.75,9.32,9.32,0,0,1,3,2.06,9.53,9.53,0,0,1,2.67,6.71,7.76,7.76,0,0,1-.95,3.87A9,9,0,0,1,43.08,29Z"/><path class="cls-1" d="M39.65,18a4.66,4.66,0,0,0-2.44-.65,6.38,6.38,0,0,0-1.05.09,9.93,9.93,0,0,0-1.06.21l-.64,9,.9.09c.3,0,.54,0,.71,0a6.73,6.73,0,0,0,3-.65,5.93,5.93,0,0,0,2.16-1.68A3.42,3.42,0,0,0,42,22.33a5,5,0,0,0-.64-2.54A4.55,4.55,0,0,0,39.65,18Z"/></g></g></svg>