<svg xmlns="http://www.w3.org/2000/svg" viewBox="0 0 373.33 373.33"><defs><style>.cls-1{fill:#ff2e56;}.cls-1,.cls-2,.cls-3{fill-rule:evenodd;}.cls-2{fill:#23f1e7;}.cls-3{fill:#fff;}</style></defs><g id="Layer_2" data-name="Layer 2"><g id="Layer_1-2" data-name="Layer 1"><circle cx="186.67" cy="186.67" r="186.67"/><path class="cls-1" d="M169,163.94h-1.36v28a31.38,31.38,0,0,0-9-1.35,30.13,30.13,0,0,0-14.44,56.87A30.49,30.49,0,0,1,169,199.6a29.19,29.19,0,0,1,9,1.35V164.84a55.77,55.77,0,0,0-9-.9Zm-48.3,110.59A67.15,67.15,0,0,0,169,295.29c36.56,0,66.35-29.34,66.35-65.45v-74a65.72,65.72,0,0,0,49.2,16.71V136.86a20.27,20.27,0,0,1-10.38,0v26.63a66.83,66.83,0,0,1-49.66-16.7v74a65.59,65.59,0,0,1-65.9,65.45,68.48,68.48,0,0,1-37.91-11.73ZM248.46,122c-8.58-9.48-13.54-22.12-13.09-34.3h-9.93c2.25,13.54,11.28,27.08,23,34.3Z"/><path class="cls-2" d="M158.63,154.91c-36.56,0-66.35,29.34-66.35,65.9a65.28,65.28,0,0,0,28.44,53.72,65.8,65.8,0,0,1,46.94-110.59v-8.13a61.39,61.39,0,0,0-9-.9Zm115.56-18v-9c-9,1.8-18.06-.9-25.73-5.87,7.22,8.13,15.8,13.54,25.73,14.9Zm-48.75-49.2a61.41,61.41,0,0,1-.91-9H188.88V220.81h0a30.26,30.26,0,0,1-30.25,30.25,31.08,31.08,0,0,1-14.44-3.62A31.42,31.42,0,0,0,169,260.08a30.34,30.34,0,0,0,30.69-30.24h0V87.66Z"/><path class="cls-3" d="M120.72,274.53a68.48,68.48,0,0,0,37.91,11.73,65.59,65.59,0,0,0,65.9-65.45v-74a66.83,66.83,0,0,0,49.66,16.7V136.86c-9.93-1.36-18.51-6.77-25.73-14.9-11.74-7.22-20.77-20.76-23-34.3H199.71V229.84h0A30.34,30.34,0,0,1,169,260.08a31.42,31.42,0,0,1-24.83-12.64,30.13,30.13,0,0,1,14.44-56.87,31.38,31.38,0,0,1,9,1.35v-28a65.8,65.8,0,0,0-46.94,110.59Z"/></g></g></svg>