<svg xmlns="http://www.w3.org/2000/svg" xmlns:xlink="http://www.w3.org/1999/xlink" viewBox="0 0 373.33 373.33"><defs><style>.cls-1{fill:url(#linear-gradient);}.cls-2{fill:#fff;fill-rule:evenodd;}</style><linearGradient id="linear-gradient" x1="186.67" x2="186.67" y2="373.33" gradientUnits="userSpaceOnUse"><stop offset="0" stop-color="#42ef62"/><stop offset="1" stop-color="#19cb3c"/></linearGradient></defs><g id="Layer_2" data-name="Layer 2"><g id="Layer_1-2" data-name="Layer 1"><circle class="cls-1" cx="186.67" cy="186.67" r="186.67"/><path class="cls-2" d="M148.17,137.74c6.05-3.85,9.9-1.1,12.1,4.94l5.5,14.3s3.85,7.7-6.05,15.4c-1.65,1.1-1.65,1.1-1.1,3.85,2.2,6.6,11,26.39,39,41.79,2.75,1.65,3.3,1.65,6.05-.55l7.15-7.15c4.95-4.4,7.7-6,12.1-2.75,3.3,2.2,6.6,5,9.9,7.15,3.3,2.75,8.8,6.05,3.3,12.65l-4.95,6c-7.15,8.8-13.2,9.35-22.55,7.15-35.74-9.35-62.14-34.65-73.68-70.39-3.85-13.75,1.65-25.3,13.19-32.44Zm38.5-58.84a108.33,108.33,0,0,1,0,216.66c-16.5,0-31.9-3.3-45.64-9.9l-57.74,9.9L91,238.37l-.55-1.1A108.58,108.58,0,0,1,186.67,78.9ZM118.48,271.36l15.4-2.75,9.34-1.65a89.44,89.44,0,0,0,43.45,11c71.27,0,123.58-82.55,66.35-157.09C178.49,63.64,95.93,116,95.93,187.23c0,18.14,5.5,34.64,14.3,48.94l-1.1,8.25-2.2,16.49-1.65,12.65Z"/></g></g></svg>